<mxfile host="app.diagrams.net" modified="2022-11-28T12:26:20.838Z" agent="5.0 (Windows NT 10.0; Win64; x64) AppleWebKit/537.36 (KHTML, like Gecko) Chrome/107.0.0.0 Safari/537.36" version="20.6.0" etag="L8scR7Cs0y6ZxiXyMi19" type="github">
  <diagram id="xwFy7spw9Hz2rB87lVYp" name="Page-1">
    <mxGraphModel dx="1038" dy="521" grid="1" gridSize="10" guides="1" tooltips="1" connect="1" arrows="1" fold="1" page="1" pageScale="1" pageWidth="850" pageHeight="1100" math="0" shadow="0">
      <root>
        <mxCell id="0" />
        <mxCell id="1" parent="0" />
        <mxCell id="xvxeSDme5p-jJuDc8yWa-1" value="Admin" style="shape=umlActor;verticalLabelPosition=bottom;verticalAlign=top;html=1;" vertex="1" parent="1">
          <mxGeometry x="70" y="230" width="30" height="60" as="geometry" />
        </mxCell>
        <mxCell id="xvxeSDme5p-jJuDc8yWa-5" style="edgeStyle=orthogonalEdgeStyle;rounded=0;orthogonalLoop=1;jettySize=auto;html=1;exitX=0.64;exitY=0.263;exitDx=0;exitDy=0;entryX=0;entryY=0.25;entryDx=0;entryDy=0;exitPerimeter=0;" edge="1" parent="1" source="xvxeSDme5p-jJuDc8yWa-1" target="xvxeSDme5p-jJuDc8yWa-2">
          <mxGeometry relative="1" as="geometry" />
        </mxCell>
        <mxCell id="xvxeSDme5p-jJuDc8yWa-6" style="edgeStyle=orthogonalEdgeStyle;rounded=0;orthogonalLoop=1;jettySize=auto;html=1;exitX=0;exitY=0.75;exitDx=0;exitDy=0;entryX=0.267;entryY=0.757;entryDx=0;entryDy=0;entryPerimeter=0;dashed=1;" edge="1" parent="1" source="xvxeSDme5p-jJuDc8yWa-2" target="xvxeSDme5p-jJuDc8yWa-1">
          <mxGeometry relative="1" as="geometry" />
        </mxCell>
        <mxCell id="xvxeSDme5p-jJuDc8yWa-7" style="edgeStyle=orthogonalEdgeStyle;rounded=0;orthogonalLoop=1;jettySize=auto;html=1;exitX=1;exitY=0.25;exitDx=0;exitDy=0;entryX=0;entryY=0.25;entryDx=0;entryDy=0;" edge="1" parent="1" source="xvxeSDme5p-jJuDc8yWa-2" target="xvxeSDme5p-jJuDc8yWa-3">
          <mxGeometry relative="1" as="geometry" />
        </mxCell>
        <mxCell id="xvxeSDme5p-jJuDc8yWa-2" value="CLIENT APPLICATION" style="rounded=0;whiteSpace=wrap;html=1;" vertex="1" parent="1">
          <mxGeometry x="330" y="230" width="120" height="60" as="geometry" />
        </mxCell>
        <mxCell id="xvxeSDme5p-jJuDc8yWa-8" style="edgeStyle=orthogonalEdgeStyle;rounded=0;orthogonalLoop=1;jettySize=auto;html=1;exitX=0;exitY=0.75;exitDx=0;exitDy=0;entryX=1;entryY=0.75;entryDx=0;entryDy=0;dashed=1;" edge="1" parent="1" source="xvxeSDme5p-jJuDc8yWa-3" target="xvxeSDme5p-jJuDc8yWa-2">
          <mxGeometry relative="1" as="geometry" />
        </mxCell>
        <mxCell id="xvxeSDme5p-jJuDc8yWa-3" value="DATABASE" style="rounded=0;whiteSpace=wrap;html=1;" vertex="1" parent="1">
          <mxGeometry x="660" y="230" width="120" height="60" as="geometry" />
        </mxCell>
        <mxCell id="xvxeSDme5p-jJuDc8yWa-10" value="1. Login&lt;br&gt;2. Check Password&amp;nbsp;&lt;br&gt;3. Login Success&lt;br&gt;4. Check Customer Detail&lt;br&gt;5. Request&lt;br&gt;6. Customer Detail&lt;br&gt;7. Flight Availability&lt;br&gt;8. Check Flight Availaility&lt;br&gt;9. Display Available Flights&lt;br&gt;10. Send Confirmation&lt;br&gt;11. Check For confirmation&lt;br&gt;12. Return&amp;nbsp;&lt;br&gt;13. Return&lt;br&gt;" style="text;html=1;align=center;verticalAlign=middle;resizable=0;points=[];autosize=1;strokeColor=none;fillColor=none;" vertex="1" parent="1">
          <mxGeometry x="590" y="20" width="170" height="200" as="geometry" />
        </mxCell>
        <mxCell id="xvxeSDme5p-jJuDc8yWa-11" value="1,4,7,10" style="text;html=1;align=center;verticalAlign=middle;resizable=0;points=[];autosize=1;strokeColor=none;fillColor=none;" vertex="1" parent="1">
          <mxGeometry x="145" y="215" width="70" height="30" as="geometry" />
        </mxCell>
        <mxCell id="xvxeSDme5p-jJuDc8yWa-12" value="2,5,8,11" style="text;html=1;align=center;verticalAlign=middle;resizable=0;points=[];autosize=1;strokeColor=none;fillColor=none;" vertex="1" parent="1">
          <mxGeometry x="515" y="215" width="70" height="30" as="geometry" />
        </mxCell>
        <mxCell id="xvxeSDme5p-jJuDc8yWa-13" value="3,6,12" style="text;html=1;align=center;verticalAlign=middle;resizable=0;points=[];autosize=1;strokeColor=none;fillColor=none;" vertex="1" parent="1">
          <mxGeometry x="520" y="275" width="60" height="30" as="geometry" />
        </mxCell>
        <mxCell id="xvxeSDme5p-jJuDc8yWa-14" value="9,13" style="text;html=1;align=center;verticalAlign=middle;resizable=0;points=[];autosize=1;strokeColor=none;fillColor=none;" vertex="1" parent="1">
          <mxGeometry x="155" y="275" width="50" height="30" as="geometry" />
        </mxCell>
        <mxCell id="xvxeSDme5p-jJuDc8yWa-15" value="&lt;font style=&quot;font-size: 22px;&quot;&gt;ADMIN:&lt;/font&gt;" style="text;html=1;align=center;verticalAlign=middle;resizable=0;points=[];autosize=1;strokeColor=none;fillColor=none;" vertex="1" parent="1">
          <mxGeometry x="50" y="10" width="100" height="40" as="geometry" />
        </mxCell>
      </root>
    </mxGraphModel>
  </diagram>
</mxfile>
